<?xml version="1.0" standalone="no"?>
<!DOCTYPE svg PUBLIC "-//W3C//DTD SVG 20010904//EN"
 "http://www.w3.org/TR/2001/REC-SVG-20010904/DTD/svg10.dtd">
<svg version="1.0" xmlns="http://www.w3.org/2000/svg"
 width="700.000000pt" height="700.000000pt" viewBox="0 0 700.000000 700.000000"
 preserveAspectRatio="xMidYMid meet">
<metadata>
Created by potrace 1.14, written by Peter Selinger 2001-2017
</metadata>
<g transform="translate(0.000000,700.000000) scale(0.100000,-0.100000)"
fill="#000000" stroke="none">
<path d="M710 6985 c-174 -35 -311 -108 -444 -234 -113 -108 -201 -259 -242
-416 -18 -67 -19 -171 -19 -2835 0 -2664 1 -2768 19 -2835 65 -246 235 -458
456 -570 78 -40 177 -71 262 -85 54 -8 799 -10 2803 -8 2626 3 2732 4 2795 22
86 24 213 84 286 134 67 45 175 154 223 225 46 68 105 199 127 282 18 67 19
171 19 2835 0 2664 -1 2768 -19 2835 -23 88 -81 214 -134 292 -22 32 -79 95
-126 140 -71 67 -105 91 -198 136 -209 102 134 92 -2993 94 -2243 1 -2762 -1
-2815 -12z m1920 -1565 l0 -380 -110 0 -110 0 0 380 0 380 110 0 110 0 0 -380z
m1110 -229 c-27 -31 -141 -150 -252 -264 l-203 -209 -73 74 -73 74 252 263
252 263 73 -73 73 -72 -49 -56z m-1957 -124 l210 -218 -73 -74 -74 -75 -211
218 c-116 119 -231 239 -255 266 l-45 49 74 68 75 69 44 -42 c24 -24 139 -141
255 -261z m983 -167 c287 -72 512 -294 596 -587 19 -64 23 -103 23 -213 0
-120 -16 -240 -32 -240 -12 0 -180 53 -201 63 -41 20 -256 12 -347 -12 -250
-67 -466 -246 -589 -488 -14 -29 -30 -53 -35 -53 -23 0 -136 87 -199 154 -214
225 -284 549 -183 843 91 264 330 480 595 538 96 21 278 19 372 -5z m-1126
-740 l0 -110 -380 0 -380 0 0 110 0 110 380 0 380 0 0 -110z m2321 95 c-55
-24 -151 -84 -233 -147 l-77 -58 -76 0 -75 0 0 110 0 110 248 0 c226 -1 244
-2 213 -15z m725 -10 c377 -66 711 -317 891 -671 28 -55 61 -128 73 -164 19
-57 30 -72 85 -118 169 -141 301 -366 358 -606 18 -76 21 -122 22 -281 0 -176
-2 -198 -28 -297 -131 -505 -509 -846 -997 -899 -62 -6 -618 -9 -1600 -7
-1375 4 -1511 5 -1575 21 -418 101 -698 459 -698 892 0 229 69 417 218 597
170 207 417 333 696 356 l82 7 22 80 c129 474 525 745 945 645 85 -21 196 -69
260 -113 l34 -24 60 85 c184 259 468 444 759 497 100 18 287 18 393 0z m-2806
-785 l75 -69 -70 -73 c-204 -214 -317 -326 -383 -380 l-74 -61 -66 66 -66 66
220 226 c120 124 232 241 248 260 16 19 32 35 35 35 3 -1 40 -32 81 -70z"/>
</g>
</svg>
